<?xml version="1.0" encoding="UTF-8"?>
<svg width="1024px" height="1024px" viewBox="0 0 1024 1024" version="1.1" xmlns="http://www.w3.org/2000/svg" xmlns:xlink="http://www.w3.org/1999/xlink">
    <title>PwaIcon</title>
    <g id="PwaIcon" stroke="none" stroke-width="1" fill="none" fill-rule="evenodd">
        <rect id="Rectangle" fill="#25B7D3" x="0" y="0" width="1024" height="1024"></rect>
        <g id="Wind-Vane" fill-rule="nonzero">
            <circle id="Oval" fill="#25B7D3" cx="512" cy="512" r="512"></circle>
            <path d="M679.563636,269.963636 C744.727273,269.963636 754.036364,325.818182 754.036364,325.818182 L787.977309,348.448582 C791.189588,350.614745 792.728366,354.541122 791.843281,358.313075 C790.958196,362.085027 787.833545,364.917135 783.993018,365.428364 C754.874182,369.152 711.149382,378.368 707.490909,400.290909 C688.872727,512 698.181818,633.018182 539.927273,633.018182 C363.054545,633.018182 418.909091,446.836364 353.745455,446.836364 C288.581818,446.836364 307.2,549.236364 307.2,549.236364 C288.581818,530.618182 279.272727,446.836364 279.272727,456.145455 C260.654545,484.072727 260.654545,577.163636 260.654545,577.163636 C242.036364,558.545455 214.109091,521.309091 214.109091,456.145455 C214.109091,390.981818 269.963636,325.818182 344.436364,325.818182 C418.909091,325.818182 437.527273,400.290909 493.381818,400.290909 C549.236364,400.290909 595.781818,269.963636 679.563636,269.963636 Z" id="Path" fill="#F0F1F1"></path>
            <path d="M679.563636,269.963636 C595.781818,269.963636 549.236364,400.290909 493.381818,400.290909 C437.527273,400.290909 418.909091,325.818182 344.436364,325.818182 C269.963636,325.818182 214.109091,390.981818 214.109091,456.145455 C214.109091,521.309091 242.036364,558.545455 260.654545,577.163636 C260.654545,577.163636 260.654545,484.072727 279.272727,456.145455 C279.272727,446.836364 288.581818,530.618182 307.2,549.236364 C307.2,549.236364 288.581818,446.836364 353.745455,446.836364 C397.777455,446.836364 386.634473,531.819055 429.307345,586.947491 L730.000291,286.254545 C718.857309,277.113018 702.808436,269.963636 679.563636,269.963636 Z" id="Path" fill="#FFFFFF"></path>
            <path d="M679.563636,269.963636 C695.742836,269.963636 708.459055,273.417309 718.466327,278.593164 L726.109091,232.727273 L688.872727,251.345455 L670.254545,214.109091 L651.636364,251.345455 L605.090909,242.036364 L632.962327,283.843491 C647.233164,275.344291 662.6304,269.963636 679.563636,269.963636 Z M736.414255,375.956945 C721.277673,381.467927 709.3248,389.278255 707.490909,400.290909 C704.418909,418.741527 702.100945,437.173527 699.671273,455.121455 C706.010764,461.451636 713.904873,465.454545 722.655418,465.454545 C743.2192,465.454545 759.891782,444.611491 759.891782,418.909091 C759.882473,399.322764 750.117236,382.817745 736.414255,375.956945 L736.414255,375.956945 Z" id="Shape" fill="#DF2C2C"></path>
            <path d="M539.927273,633.018182 C529.854836,633.018182 520.629527,632.338618 512,631.202909 L512,809.890909 L549.236364,809.890909 L549.236364,632.794764 C546.164364,632.887855 543.138909,633.018182 539.927273,633.018182 Z" id="Path" fill="#F3B607"></path>
            <circle id="Oval" fill="#8E6134" cx="688.872727" cy="325.818182" r="18.6181818"></circle>
            <path d="M728.715636,649.160145 C723.166345,644.537992 715.444611,643.542069 708.904134,646.604927 C702.363657,649.667785 698.184525,656.236795 698.181818,663.458909 L698.181818,698.181818 L363.054545,698.181818 L325.818182,660.945455 L214.109091,660.945455 L260.654545,716.8 L214.109091,772.654545 L325.818182,772.654545 L363.054545,735.418182 L698.181818,735.418182 L698.181818,770.141091 C698.181516,777.366798 702.362019,783.94014 708.906109,787.003755 C715.450199,790.067371 723.175904,789.06792 728.724945,784.439855 L809.890909,716.8 L728.715636,649.160145 Z" id="Path" fill="#FACB1B"></path>
            <path d="M708.905891,646.600145 C702.363163,649.663226 698.18299,656.234662 698.181818,663.458909 L698.181818,698.181818 L363.054545,698.181818 L325.818182,660.945455 L214.109091,660.945455 L260.654545,716.8 L809.890909,716.8 L728.715636,649.160145 C723.168657,644.534929 715.446433,643.536992 708.905891,646.600145 L708.905891,646.600145 Z" id="Path" fill="#FBE158"></path>
        </g>
    </g>
</svg>